<?xml version="1.0" encoding="UTF-8" standalone="no"?>
<svg
   xmlns:dc="http://purl.org/dc/elements/1.1/"
   xmlns:cc="http://creativecommons.org/ns#"
   xmlns:rdf="http://www.w3.org/1999/02/22-rdf-syntax-ns#"
   xmlns:svg="http://www.w3.org/2000/svg"
   xmlns="http://www.w3.org/2000/svg"
   xmlns:sodipodi="http://sodipodi.sourceforge.net/DTD/sodipodi-0.dtd"
   xmlns:inkscape="http://www.inkscape.org/namespaces/inkscape"
   inkscape:version="1.0 (4035a4fb49, 2020-05-01)"
   sodipodi:docname="rebu-white.com.svg"
   id="svg8"
   version="1.1"
   data-reactid="19"
   width="146"
   height="24"
   viewBox="57 57 369 61">
  <metadata
     id="metadata14">
    <rdf:RDF>
      <cc:Work
         rdf:about="">
        <dc:format>image/svg+xml</dc:format>
        <dc:type
           rdf:resource="http://purl.org/dc/dcmitype/StillImage" />
        <dc:title></dc:title>
      </cc:Work>
    </rdf:RDF>
  </metadata>
  <defs
     id="defs12" />
  <sodipodi:namedview
     inkscape:current-layer="g6"
     inkscape:window-maximized="1"
     inkscape:window-y="29"
     inkscape:window-x="-9"
     inkscape:cy="12"
     inkscape:cx="73"
     inkscape:zoom="9.7260274"
     showgrid="false"
     id="namedview10"
     inkscape:window-height="1013"
     inkscape:window-width="1920"
     inkscape:pageshadow="2"
     inkscape:pageopacity="0"
     guidetolerance="10"
     gridtolerance="10"
     objecttolerance="10"
     borderopacity="1"
     bordercolor="#666666"
     pagecolor="#ffffff" />
  <g
     id="g6"
     data-reactid="20">
    <path
       id="path4"
       data-reactid="22"
       d="M252.32 58.25h40.87v10h-29.83v14.2h29v9.66h-29v14.44h29.83v10h-40.87zm153.74 59.35c12.53 0 19.59-6 19.59-14.24 0-5.87-4.18-10.25-12.93-12.15l-9.25-1.89c-5.37-1-7.06-2-7.06-4 0-2.59 2.59-4.18 7.36-4.18 5.17 0 9 1.39 10 6.17h10.84c-.59-9-7.06-14.94-20.18-14.94-11.34 0-19.3 4.68-19.3 13.75 0 6.27 4.38 10.35 13.83 12.34l10.34 2.39c4.08.8 5.17 1.9 5.17 3.59 0 2.69-3.08 4.38-8.06 4.38-6.26 0-9.84-1.39-11.23-6.17h-10.9c1.59 8.98 8.25 14.95 21.78 14.95zm-24.93-1.09H369.4c-7.36 0-11.44-4.58-11.44-10.36v-22.9h-8.25v-9.76H358V61.24h10.9v12.25h12.23v9.76H368.9v20.11c0 2.29 1.59 3.39 4.08 3.39h8.15zm-47-43v3.88a21.16 21.16 0 0 0-13.73-5 22.61 22.61 0 1 0 0 45.21 21.1 21.1 0 0 0 13.73-5v3.89H345v-43zm-12.83 34.65a13.15 13.15 0 1 1 13-13.14 13 13 0 0 1-13.02 13.12z"
       fill="#5fb709" />
    <text
       id="text18"
       y="116.8001"
       x="54.045261"
       style="font-style:normal;font-weight:normal;font-size:83.5251px;line-height:1.25;font-family:sans-serif;fill:#ffffff;fill-opacity:1;stroke:none;stroke-width:2.08812;"
       xml:space="preserve"><tspan
         style="font-style:normal;font-variant:normal;font-weight:normal;font-stretch:normal;font-family:'Uber Move';-inkscape-font-specification:'Uber Move';stroke-width:2.08812;fill:#ffffff;"
         y="116.8001"
         x="54.045261"
         id="tspan16"
         sodipodi:role="line">Rebu</tspan></text>
  </g>
</svg>
