<?xml version="1.0" encoding="UTF-8" standalone="no"?>
<svg
   xmlns:dc="http://purl.org/dc/elements/1.1/"
   xmlns:cc="http://creativecommons.org/ns#"
   xmlns:rdf="http://www.w3.org/1999/02/22-rdf-syntax-ns#"
   xmlns:svg="http://www.w3.org/2000/svg"
   xmlns="http://www.w3.org/2000/svg"
   xmlns:sodipodi="http://sodipodi.sourceforge.net/DTD/sodipodi-0.dtd"
   xmlns:inkscape="http://www.inkscape.org/namespaces/inkscape"
   inkscape:version="1.0 (4035a4fb49, 2020-05-01)"
   sodipodi:docname="rebu-app-logo.svg"
   id="svg8"
   version="1.1"
   data-reactid="19"
   width="200mm"
   height="200mm"
   viewBox="57 57 1910.4735 1921.2598">
  <metadata
     id="metadata14">
    <rdf:RDF>
      <cc:Work
         rdf:about="">
        <dc:format>image/svg+xml</dc:format>
        <dc:type
           rdf:resource="http://purl.org/dc/dcmitype/StillImage" />
        <dc:title></dc:title>
      </cc:Work>
    </rdf:RDF>
  </metadata>
  <defs
     id="defs12" />
  <sodipodi:namedview
     height="200mm"
     units="mm"
     inkscape:current-layer="layer2"
     inkscape:window-maximized="1"
     inkscape:window-y="29"
     inkscape:window-x="-9"
     inkscape:cy="210.77264"
     inkscape:cx="1.6079427"
     inkscape:zoom="0.60787671"
     showgrid="false"
     id="namedview10"
     inkscape:window-height="1013"
     inkscape:window-width="1920"
     inkscape:pageshadow="2"
     inkscape:pageopacity="0"
     guidetolerance="10"
     gridtolerance="10"
     objecttolerance="10"
     borderopacity="1"
     bordercolor="#666666"
     pagecolor="#ffffff" />
  <g
     transform="translate(-12.543662,-8.362441)"
     id="g6"
     data-reactid="20">
    <rect
       ry="173.5103"
       y="293.90225"
       x="303.11786"
       height="1449.736"
       width="1447.4891"
       id="rect20"
       style="fill:#333333;stroke-width:11.2575" />
  </g>
  <g
     inkscape:label="Layer 1"
     id="layer2"
     inkscape:groupmode="layer">
    <text
       id="text18"
       y="987.95404"
       x="502.95737"
       style="font-style:normal;font-weight:normal;font-size:464.052px;line-height:1.25;font-family:sans-serif;fill:#ffffff;fill-opacity:1;stroke:none;stroke-width:11.6013"
       xml:space="preserve"><tspan
         style="font-style:normal;font-variant:normal;font-weight:normal;font-stretch:normal;font-family:'Uber Move';-inkscape-font-specification:'Uber Move';fill:#ffffff;stroke-width:11.6013"
         y="987.95404"
         x="502.95737"
         id="tspan16"
         sodipodi:role="line">Rebu</tspan></text>
    <path
       style="stroke-width:5.86518"
       id="path4"
       data-reactid="22"
       d="m 527.99834,1010.1476 h 239.71032 v 58.6518 H 592.75004 v 83.2856 h 170.09051 v 56.6578 H 592.75004 v 84.6934 h 174.95862 v 58.6518 H 527.99834 Z m 901.71436,348.0989 c 73.4908,0 114.899,-35.1912 114.899,-83.5203 0,-34.4287 -24.5164,-60.1182 -75.837,-71.2621 l -54.2529,-11.0852 c -31.4961,-5.8651 -41.4083,-11.7304 -41.4083,-23.4607 0,-15.1909 15.1908,-24.5166 43.1679,-24.5166 30.3229,0 52.7867,8.1527 58.6518,36.1883 h 63.5787 c -3.4604,-52.7867 -41.4083,-87.626 -118.3595,-87.626 -66.5112,0 -113.1982,27.4492 -113.1982,80.6464 0,36.7747 25.6895,60.7048 81.1156,72.3764 l 60.646,14.0179 c 23.93,4.6921 30.3231,11.1439 30.3231,21.0559 0,15.7775 -18.0649,25.6897 -47.2735,25.6897 -36.716,0 -57.7135,-8.1527 -65.866,-36.1883 h -63.9306 c 9.3256,52.6694 48.3878,87.6846 127.7439,87.6846 z m -146.2193,-6.3931 h -68.7987 c -43.1677,0 -67.0977,-26.8626 -67.0977,-60.7633 v -134.3129 h -48.3878 v -57.2443 h 48.6224 v -71.8485 h 63.9305 v 71.8485 h 71.7313 v 57.2443 h -71.7313 v 117.949 c 0,13.4312 9.3257,19.883 23.9301,19.883 h 47.8012 z m -275.6639,-252.2032 v 22.757 a 124.10743,124.10743 0 0 0 -80.52902,-29.326 132.61195,132.61195 0 1 0 0,265.1653 123.75551,123.75551 0 0 0 80.52902,-29.3259 v 22.8156 h 63.7546 v -252.2033 z m -75.25035,203.2289 a 77.12725,77.12725 0 1 1 76.24745,-77.0686 76.247471,76.247471 0 0 1 -76.36476,76.9513 z"
       fill="#5fb709" />
  </g>
</svg>
